solid OpenSCAD_Model
  facet normal 0 0 -1
    outer loop
      vertex 19.6 29.1 0
      vertex 29.1 19.6 0
      vertex 19.8 19.8 0
    endloop
  endfacet
  facet normal -0 0 -1
    outer loop
      vertex 29.1 19.6 0
      vertex 19.8 0.2 0
      vertex 19.8 19.8 0
    endloop
  endfacet
  facet normal -0 0 -1
    outer loop
      vertex 19.6 29.1 0
      vertex 0.2 19.8 0
      vertex 0.2 29.1 0
    endloop
  endfacet
  facet normal 0 -0 -1
    outer loop
      vertex 29.1 19.6 0
      vertex 29.1 0.2 0
      vertex 19.8 0.2 0
    endloop
  endfacet
  facet normal 0 -0 -1
    outer loop
      vertex 19.6 29.1 0
      vertex 19.8 19.8 0
      vertex 0.2 19.8 0
    endloop
  endfacet
  facet normal 0.707107 0.707107 0
    outer loop
      vertex 19.6 29.1 0
      vertex 29.1 19.6 50
      vertex 29.1 19.6 0
    endloop
  endfacet
  facet normal 0.707107 0.707107 -0
    outer loop
      vertex 19.6 29.1 0
      vertex 19.6 29.1 50
      vertex 29.1 19.6 50
    endloop
  endfacet
  facet normal 0 1 0
    outer loop
      vertex 0.2 29.1 0
      vertex 19.6 29.1 50
      vertex 19.6 29.1 0
    endloop
  endfacet
  facet normal 0 1 0
    outer loop
      vertex 0.2 29.1 0
      vertex 0.2 29.1 50
      vertex 19.6 29.1 50
    endloop
  endfacet
  facet normal -1 0 0
    outer loop
      vertex 0.2 19.8 0
      vertex 0.2 29.1 50
      vertex 0.2 29.1 0
    endloop
  endfacet
  facet normal -1 0 0
    outer loop
      vertex 0.2 19.8 0
      vertex 0.2 19.8 50
      vertex 0.2 29.1 50
    endloop
  endfacet
  facet normal 0 -1 0
    outer loop
      vertex 19.8 19.8 0
      vertex 0.2 19.8 50
      vertex 0.2 19.8 0
    endloop
  endfacet
  facet normal 0 -1 0
    outer loop
      vertex 19.8 19.8 0
      vertex 19.8 19.8 50
      vertex 0.2 19.8 50
    endloop
  endfacet
  facet normal -1 0 0
    outer loop
      vertex 19.8 0.2 0
      vertex 19.8 19.8 50
      vertex 19.8 19.8 0
    endloop
  endfacet
  facet normal -1 0 0
    outer loop
      vertex 19.8 0.2 0
      vertex 19.8 0.2 50
      vertex 19.8 19.8 50
    endloop
  endfacet
  facet normal 0 -1 0
    outer loop
      vertex 29.1 0.2 0
      vertex 19.8 0.2 50
      vertex 19.8 0.2 0
    endloop
  endfacet
  facet normal 0 -1 0
    outer loop
      vertex 29.1 0.2 0
      vertex 29.1 0.2 50
      vertex 19.8 0.2 50
    endloop
  endfacet
  facet normal 1 0 0
    outer loop
      vertex 29.1 19.6 0
      vertex 29.1 0.2 50
      vertex 29.1 0.2 0
    endloop
  endfacet
  facet normal 1 0 -0
    outer loop
      vertex 29.1 19.6 0
      vertex 29.1 19.6 50
      vertex 29.1 0.2 50
    endloop
  endfacet
  facet normal -0 -0 1
    outer loop
      vertex 19.8 19.8 50
      vertex 29.1 19.6 50
      vertex 19.6 29.1 50
    endloop
  endfacet
  facet normal 0 0 1
    outer loop
      vertex 19.8 19.8 50
      vertex 19.8 0.2 50
      vertex 29.1 19.6 50
    endloop
  endfacet
  facet normal -0 0 1
    outer loop
      vertex 0.2 29.1 50
      vertex 0.2 19.8 50
      vertex 19.6 29.1 50
    endloop
  endfacet
  facet normal 0 0 1
    outer loop
      vertex 19.8 0.2 50
      vertex 29.1 0.2 50
      vertex 29.1 19.6 50
    endloop
  endfacet
  facet normal 0 0 1
    outer loop
      vertex 0.2 19.8 50
      vertex 19.8 19.8 50
      vertex 19.6 29.1 50
    endloop
  endfacet
endsolid OpenSCAD_Model
